<svg width="100" height="100" viewBox="0 0 100 100" fill="none" xmlns="http://www.w3.org/2000/svg">
<rect width="100" height="100" fill="#1E1E1E"/>
<rect width="100" height="100" fill="#FFB956"/>
<rect x="8" y="7" width="84" height="86" rx="14" fill="#DBD8CD"/>
<path d="M37.4077 43.5384C37.2893 42.2363 36.7625 41.2242 35.8274 40.5021C34.9041 39.7682 33.5843 39.4013 31.8679 39.4013C30.7315 39.4013 29.7846 39.5492 29.027 39.8452C28.2694 40.1411 27.7012 40.5495 27.3224 41.0703C26.9437 41.5793 26.7483 42.1652 26.7365 42.8281C26.7128 43.3726 26.8194 43.852 27.0561 44.2663C27.3047 44.6806 27.6598 45.0476 28.1214 45.3672C28.5949 45.675 29.1631 45.9472 29.826 46.1839C30.4889 46.4207 31.2346 46.6278 32.0632 46.8054L35.1882 47.5156C36.9875 47.9062 38.5736 48.4271 39.9467 49.0781C41.3317 49.7292 42.4917 50.5045 43.4268 51.4041C44.3738 52.3037 45.09 53.3395 45.5753 54.5114C46.0606 55.6832 46.3092 56.9972 46.321 58.4531C46.3092 60.7495 45.7292 62.7204 44.581 64.3658C43.4328 66.0111 41.7815 67.2718 39.6271 68.1477C37.4846 69.0237 34.8982 69.4616 31.8679 69.4616C28.8258 69.4616 26.1742 69.0059 23.9134 68.0945C21.6525 67.183 19.8946 65.7981 18.6399 63.9396C17.3852 62.0812 16.7401 59.7315 16.7045 56.8906H25.1207C25.1918 58.0625 25.5054 59.0391 26.0618 59.8203C26.6181 60.6016 27.3816 61.1934 28.3523 61.5959C29.3348 61.9983 30.4711 62.1996 31.7614 62.1996C32.9451 62.1996 33.9512 62.0398 34.7798 61.7202C35.6203 61.4006 36.2654 60.9567 36.7152 60.3885C37.165 59.8203 37.3958 59.1693 37.4077 58.4354C37.3958 57.7488 37.1828 57.1629 36.7685 56.6776C36.3542 56.1804 35.715 55.7543 34.8509 55.3991C33.9986 55.0322 32.9096 54.6948 31.5838 54.3871L27.7841 53.4993C24.6354 52.7772 22.1555 51.6113 20.3445 50.0014C18.5334 48.3797 17.6338 46.1899 17.6456 43.4318C17.6338 41.1828 18.2375 39.2119 19.4567 37.5192C20.6759 35.8265 22.3627 34.5066 24.517 33.5597C26.6714 32.6127 29.1276 32.1392 31.8857 32.1392C34.7029 32.1392 37.1473 32.6186 39.2188 33.5774C41.3021 34.5244 42.9179 35.8561 44.0661 37.5724C45.2143 39.2888 45.8002 41.2775 45.8239 43.5384H37.4077ZM50.7599 69V32.6364H59.549V47.2315H73.8778V32.6364H82.6491V69H73.8778V54.3871H59.549V69H50.7599Z" fill="black"/>
</svg>
